<?xml version="1.0" encoding="utf-8"?>
<!-- Generator: Adobe Illustrator 25.0.0, SVG Export Plug-In . SVG Version: 6.00 Build 0)  -->
<svg version="1.1" id="_x2014_лой_x5F_2" xmlns="http://www.w3.org/2000/svg" xmlns:xlink="http://www.w3.org/1999/xlink"
	 x="0px" y="0px" viewBox="0 0 5442.52 3061.42" style="enable-background:new 0 0 5442.52 3061.42;" xml:space="preserve">
<style type="text/css">
	.st0{display:none;fill:#EDEDED;}
	.st1{fill:#B4DCE6;}
	.st2{fill:none;stroke:#3C3C5A;stroke-width:10;stroke-miterlimit:10;stroke-dasharray:19.9467,19.9467;}
	.st3{fill:#FFFFFF;}
	.st4{fill:#3C3C5A;}
	.st5{fill:#E95A50;}
	.st6{opacity:0.4;fill:#FFFFFF;}
	.st7{fill:#A0BEDC;}
	.st8{fill:#E95A50;stroke:#3C3C5A;stroke-width:15;stroke-miterlimit:10;}
</style>
<g>
	<rect class="st0" width="5442.52" height="3061.42"/>
	<g>
		<path class="st1" d="M3205.47,2027.83c0,0-1335.34,201.81-1508.46-315.18c-148-441.99,125.08-808.18,567.95-770.48
			c390.36,33.23,570.61,4.96,649.97-141.73c180.93-334.39,558.45-306.76,691.2-0.07C3700.83,1019.12,3881.9,1856.1,3205.47,2027.83z
			"/>
		<g>
			<path class="st2" d="M3290.23,2076.82c0,0-1328.57,199.49-1508.46-315.18c-159.82-457.26,125.08-808.18,567.95-770.48
				c390.36,33.23,570.61,4.96,649.97-141.72c180.93-334.39,558.45-306.76,691.2-0.07
				C3785.59,1068.11,3966.66,1905.09,3290.23,2076.82z"/>
		</g>
	</g>
	<g>
		<g>
			<path class="st3" d="M2122.07,2481.85v-940.96c0-25.41,20.67-46.08,46.08-46.08c25.41,0,46.08,20.67,46.08,46.08v940.96H2122.07z
				"/>
			<path class="st4" d="M2168.15,1502.79c21.04,0,38.1,17.06,38.1,38.1v932.98h-76.21v-932.98
				C2130.05,1519.85,2147.1,1502.79,2168.15,1502.79 M2168.15,1486.83c-29.81,0-54.06,24.25-54.06,54.06v932.98v15.96h15.96h76.21
				h15.96v-15.96v-932.98C2222.21,1511.08,2197.96,1486.83,2168.15,1486.83L2168.15,1486.83z"/>
		</g>
		<g>
			<path class="st3" d="M3245.19,2481.85v-940.96c0-25.41,20.67-46.08,46.08-46.08s46.08,20.67,46.08,46.08v940.96H3245.19z"/>
			<path class="st4" d="M3291.27,1502.79c21.04,0,38.1,17.06,38.1,38.1v932.98h-76.21v-932.98
				C3253.17,1519.85,3270.23,1502.79,3291.27,1502.79L3291.27,1502.79 M3291.27,1486.83c-29.81,0-54.06,24.25-54.06,54.06v932.98
				v15.96h15.96h76.21h15.96v-15.96v-932.98C3345.34,1511.08,3321.08,1486.83,3291.27,1486.83L3291.27,1486.83z"/>
		</g>
		<g>
			<rect x="2051.04" y="1567.38" class="st3" width="1349.07" height="268.55"/>
			<path class="st4" d="M3392.13,1575.36v252.59h-1333.1v-252.59H3392.13 M3408.09,1559.4h-15.96h-1333.1h-15.96v15.96v252.59v15.96
				h15.96h1333.1h15.96v-15.96v-252.59V1559.4L3408.09,1559.4z"/>
		</g>
		<polygon class="st5" points="2288.2,1575.36 2059.02,1804.53 2059.02,1668.53 2152.2,1575.36 		"/>
		<polygon class="st5" points="2556.73,1575.36 2304.15,1827.94 2168.15,1827.94 2420.73,1575.36 		"/>
		<polygon class="st5" points="2825.27,1575.36 2572.68,1827.94 2436.68,1827.94 2689.27,1575.36 		"/>
		<polygon class="st5" points="3093.8,1575.36 2841.21,1827.94 2705.22,1827.94 2957.8,1575.36 		"/>
		<polygon class="st5" points="3362.34,1575.36 3109.74,1827.94 2973.75,1827.94 3226.34,1575.36 		"/>
		<polygon class="st5" points="3392.13,1678.1 3392.13,1814.1 3378.28,1827.94 3242.28,1827.94 		"/>
		<rect x="2059.02" y="1575.36" class="st6" width="1333.1" height="26.69"/>
		<g>
			<rect x="2051.04" y="2173.77" class="st3" width="1349.07" height="182.89"/>
			<path class="st4" d="M3392.13,2181.75v166.93h-1333.1v-166.93H3392.13 M3408.09,2165.79h-15.96h-1333.1h-15.96v15.96v166.93
				v15.96h15.96h1333.1h15.96v-15.96v-166.93V2165.79L3408.09,2165.79z"/>
		</g>
		<polygon class="st5" points="2259.19,2181.75 2092.27,2348.68 2059.02,2348.68 2059.02,2238.24 2115.5,2181.75 		"/>
		<polygon class="st5" points="2524.1,2181.75 2357.17,2348.68 2213.48,2348.68 2380.41,2181.75 		"/>
		<polygon class="st5" points="2789.01,2181.75 2622.07,2348.68 2478.38,2348.68 2645.31,2181.75 		"/>
		<polygon class="st5" points="3053.91,2181.75 2886.98,2348.68 2743.29,2348.68 2910.22,2181.75 		"/>
		<polygon class="st5" points="3318.81,2181.75 3151.89,2348.68 3008.2,2348.68 3175.12,2181.75 		"/>
		<polygon class="st5" points="3392.13,2229.66 3392.13,2348.68 3273.1,2348.68 		"/>
		<rect x="2059.02" y="2181.75" class="st6" width="1333.1" height="26.69"/>
		<rect x="2130.05" y="1843.66" class="st7" width="76.21" height="54.73"/>
		<rect x="3253.17" y="1843.66" class="st7" width="76.21" height="54.73"/>
		<rect x="2130.05" y="2364.4" class="st7" width="76.21" height="36.89"/>
		<rect x="3253.17" y="2364.4" class="st7" width="76.21" height="36.89"/>
		<g>
			<circle class="st5" cx="2168.15" cy="1431.3" r="62.23"/>
			<path class="st4" d="M2168.15,1377.06c29.96,0,54.25,24.29,54.25,54.25s-24.29,54.25-54.25,54.25
				c-29.96,0-54.25-24.29-54.25-54.25S2138.19,1377.06,2168.15,1377.06 M2168.15,1361.1c-38.71,0-70.21,31.49-70.21,70.21
				c0,38.71,31.5,70.21,70.21,70.21s70.21-31.5,70.21-70.21C2238.36,1392.59,2206.86,1361.1,2168.15,1361.1L2168.15,1361.1z"/>
		</g>
		
			<ellipse transform="matrix(0.9239 -0.3827 0.3827 0.9239 -382.6959 938.6655)" class="st3" cx="2168.15" cy="1431.3" rx="25.82" ry="25.82"/>
		<g>
			<circle class="st5" cx="3291.27" cy="1431.3" r="62.23"/>
			<path class="st4" d="M3291.27,1377.06c29.96,0,54.25,24.29,54.25,54.25s-24.29,54.25-54.25,54.25s-54.25-24.29-54.25-54.25
				S3261.31,1377.06,3291.27,1377.06 M3291.27,1361.1c-38.71,0-70.21,31.49-70.21,70.21c0,38.71,31.5,70.21,70.21,70.21
				c38.71,0,70.21-31.5,70.21-70.21C3361.48,1392.59,3329.99,1361.1,3291.27,1361.1L3291.27,1361.1z"/>
		</g>
		
			<ellipse transform="matrix(0.9239 -0.3827 0.3827 0.9239 -297.2032 1368.4668)" class="st3" cx="3291.27" cy="1431.3" rx="25.82" ry="25.82"/>
	</g>
	<g>
		<g>
			<line class="st3" x1="1801.27" y1="2481.74" x2="3940.88" y2="2481.74"/>
			<rect x="1511.18" y="2473.76" class="st4" width="2429.71" height="15.96"/>
		</g>
	</g>
	<g>
		<g>
			<rect x="3488.45" y="2432.86" class="st8" width="444.03" height="47.06"/>
			<g>
				<polygon class="st5" points="3551.22,2432.38 3584,2299.76 3597.01,2247.14 3625.26,2132.83 3676.25,1926.52 3744.68,1926.52 
					3808.68,2185.45 3823.93,2247.14 3869.71,2432.38 				"/>
				<path class="st4" d="M3738.44,1934.5l49.49,200.24l13,52.61l15.25,61.69l13,52.62l30.33,122.73h-298.1l30.33-122.73l13.01-52.62
					l15.25-61.69l13-52.61l49.5-200.24H3738.44 M3750.93,1918.54h-12.5h-55.93h-12.5l-3,12.13l-49.5,200.24l-13,52.61l-15.25,61.69
					l-13.01,52.62l-30.33,122.73l-4.89,19.79h20.39h298.1h20.39l-4.89-19.79l-30.33-122.73l-13-52.62l-15.25-61.7l-13-52.61
					l-49.49-200.24L3750.93,1918.54L3750.93,1918.54z"/>
			</g>
			<polygon class="st3" points="3800.93,2187.36 3620,2187.36 3633.01,2134.75 3787.93,2134.75 			"/>
			<polygon class="st3" points="3829.19,2301.68 3591.75,2301.68 3604.76,2249.05 3816.18,2249.05 			"/>
			<polygon class="st6" points="3859.52,2424.4 3829.19,2424.4 3718.8,1934.5 3738.44,1934.5 			"/>
		</g>
		<g>
			<rect x="1518.66" y="2432.86" class="st8" width="444.03" height="47.06"/>
			<g>
				<polygon class="st5" points="1581.44,2432.38 1614.21,2299.76 1627.22,2247.14 1655.47,2132.83 1706.47,1926.52 1774.9,1926.52 
					1838.89,2185.45 1854.14,2247.14 1899.92,2432.38 				"/>
				<path class="st4" d="M1768.65,1934.5l49.49,200.24l13,52.61l15.25,61.69l13,52.62l30.33,122.73h-298.1l30.33-122.73l13.01-52.62
					l15.25-61.69l13-52.61l49.5-200.24H1768.65 M1781.15,1918.54h-12.5h-55.93h-12.5l-3,12.13l-49.5,200.24l-13,52.61l-15.25,61.7
					l-13.01,52.62l-30.33,122.73l-4.89,19.79h20.38h298.1h20.38l-4.89-19.79l-30.33-122.73l-13-52.62l-15.25-61.7l-13-52.61
					l-49.49-200.24L1781.15,1918.54L1781.15,1918.54z"/>
			</g>
			<polygon class="st3" points="1831.14,2187.36 1650.22,2187.36 1663.22,2134.75 1818.14,2134.75 			"/>
			<polygon class="st3" points="1859.4,2301.68 1621.96,2301.68 1634.97,2249.05 1846.4,2249.05 			"/>
			<polygon class="st6" points="1889.73,2424.4 1859.4,2424.4 1749.02,1934.5 1768.65,1934.5 			"/>
		</g>
	</g>
	<g>
		<g>
			<path class="st3" d="M1818.09,1101.47c-32.01,0-58.04-26.04-58.04-58.04s26.04-58.04,58.04-58.04c9.16,0,18.06,2.14,26.07,6.17
				c-0.01-0.49-0.02-0.99-0.02-1.48c0-32.01,26.04-58.04,58.04-58.04c10.04,0,19.81,2.59,28.42,7.43
				c5.15-35.6,35.88-63.05,72.88-63.05c31.21,0,58.68,19.72,69.15,48.27c10.26-8.36,23.11-13,36.62-13
				c32.01,0,58.04,26.04,58.04,58.04c0,3.85-0.37,7.63-1.09,11.32c5.56-1.62,11.35-2.45,17.21-2.45c33.87,0,61.43,27.56,61.43,61.44
				c0,33.88-27.56,61.44-61.43,61.44H1818.09z"/>
			<path class="st4" d="M2003.49,882.92c32.64,0,59.84,23.29,65.89,54.16c9.45-11.53,23.81-18.9,39.89-18.9
				c28.47,0,51.54,23.08,51.54,51.55c0,8.29-1.96,16.12-5.43,23.06c8.21-4.88,17.8-7.69,28.04-7.69c30.34,0,54.93,24.6,54.93,54.94
				c0,30.34-24.6,54.94-54.93,54.94h-365.34c-28.47,0-51.54-23.08-51.54-51.55c0-28.47,23.08-51.54,51.54-51.54
				c13.46,0,25.72,5.16,34.9,13.62c-1.53-4.87-2.35-10.05-2.35-15.43c0-28.47,23.08-51.54,51.54-51.54
				c13.11,0,25.08,4.9,34.18,12.97c-0.01-0.48-0.02-0.95-0.02-1.44C1936.35,912.98,1966.41,882.92,2003.49,882.92 M2003.49,869.92
				c-37.28,0-68.69,25.58-77.61,60.12c-7.48-2.95-15.51-4.5-23.7-4.5c-32.88,0-60.09,24.71-64.05,56.53
				c-6.41-2.09-13.16-3.18-20.05-3.18c-35.59,0-64.54,28.95-64.54,64.54s28.95,64.55,64.54,64.55h365.34
				c37.46,0,67.93-30.48,67.93-67.94s-30.47-67.94-67.93-67.94c-3.25,0-6.49,0.23-9.68,0.69c0.05-1.02,0.07-2.04,0.07-3.06
				c0-35.59-28.95-64.55-64.54-64.55c-12.13,0-23.78,3.36-33.82,9.55C2062.24,887.89,2034.57,869.92,2003.49,869.92L2003.49,869.92z
				"/>
		</g>
		<path class="st7" d="M2236.7,1053.45c-5.98,23.86-27.57,41.52-53.28,41.52h-365.34c-28.47,0-51.54-23.08-51.54-51.55
			c0-12.25,4.27-23.5,11.41-32.34c-0.9,3.81-1.38,7.79-1.38,11.88c0,28.46,23.08,51.54,51.55,51.54h365.34
			C2211.01,1074.51,2226.65,1066.27,2236.7,1053.45z"/>
	</g>
	<g>
		<g>
			<path class="st3" d="M3752.23,1416.91c-32.01,0-58.04-26.04-58.04-58.05c0-32.01,26.04-58.04,58.04-58.04
				c9.16,0,18.06,2.14,26.07,6.17c-0.01-0.49-0.02-0.99-0.02-1.48c0-32.01,26.04-58.04,58.04-58.04c10.04,0,19.81,2.59,28.42,7.43
				c5.15-35.6,35.87-63.05,72.88-63.05c31.21,0,58.68,19.72,69.15,48.27c10.26-8.36,23.11-13,36.62-13
				c32.01,0,58.04,26.04,58.04,58.04c0,3.85-0.37,7.63-1.09,11.32c5.56-1.62,11.35-2.45,17.21-2.45c33.88,0,61.43,27.56,61.43,61.44
				s-27.56,61.44-61.43,61.44H3752.23z"/>
			<path class="st4" d="M3937.63,1198.35c32.64,0,59.84,23.29,65.89,54.16c9.45-11.53,23.81-18.9,39.89-18.9
				c28.47,0,51.54,23.08,51.54,51.55c0,8.29-1.96,16.12-5.43,23.06c8.21-4.88,17.8-7.69,28.04-7.69c30.34,0,54.93,24.6,54.93,54.94
				c0,30.34-24.6,54.94-54.93,54.94h-365.34c-28.47,0-51.54-23.08-51.54-51.55c0-28.47,23.08-51.55,51.54-51.55
				c13.46,0,25.72,5.16,34.9,13.62c-1.53-4.87-2.35-10.05-2.35-15.43c0-28.47,23.08-51.55,51.54-51.55
				c13.11,0,25.08,4.9,34.18,12.97c-0.01-0.48-0.02-0.95-0.02-1.44C3870.49,1228.41,3900.55,1198.35,3937.63,1198.35
				 M3937.63,1185.35c-37.28,0-68.69,25.58-77.61,60.12c-7.48-2.95-15.51-4.5-23.7-4.5c-32.88,0-60.09,24.71-64.05,56.53
				c-6.41-2.09-13.16-3.18-20.05-3.18c-35.59,0-64.54,28.95-64.54,64.55c0,35.59,28.95,64.55,64.54,64.55h365.34
				c37.46,0,67.93-30.48,67.93-67.94s-30.48-67.94-67.93-67.94c-3.25,0-6.49,0.23-9.68,0.69c0.05-1.02,0.07-2.04,0.07-3.06
				c0-35.59-28.95-64.55-64.55-64.55c-12.13,0-23.78,3.36-33.82,9.55C3996.38,1203.32,3968.71,1185.35,3937.63,1185.35
				L3937.63,1185.35z"/>
		</g>
		<path class="st7" d="M4170.84,1368.89c-5.98,23.86-27.57,41.52-53.28,41.52h-365.34c-28.47,0-51.54-23.08-51.54-51.55
			c0-12.25,4.27-23.5,11.41-32.34c-0.9,3.81-1.38,7.79-1.38,11.88c0,28.46,23.08,51.54,51.55,51.54h365.34
			C4145.15,1389.95,4160.78,1381.71,4170.84,1368.89z"/>
	</g>
	<g>
		<g>
			<path class="st3" d="M2772.65,790.14c-32.01,0-58.04-26.04-58.04-58.04c0-32.01,26.04-58.05,58.04-58.05
				c9.16,0,18.06,2.14,26.07,6.17c-0.01-0.49-0.02-0.99-0.02-1.48c0-32.01,26.04-58.05,58.04-58.05c10.04,0,19.81,2.59,28.43,7.43
				c5.15-35.6,35.87-63.05,72.88-63.05c31.21,0,58.68,19.72,69.15,48.27c10.26-8.36,23.11-13,36.62-13
				c32.01,0,58.04,26.04,58.04,58.04c0,3.85-0.37,7.63-1.09,11.32c5.56-1.62,11.35-2.45,17.21-2.45c33.88,0,61.43,27.56,61.43,61.44
				c0,33.88-27.56,61.44-61.43,61.44H2772.65z"/>
			<path class="st4" d="M2958.06,571.58c32.64,0,59.84,23.29,65.89,54.16c9.45-11.53,23.81-18.9,39.89-18.9
				c28.47,0,51.54,23.08,51.54,51.54c0,8.29-1.96,16.12-5.43,23.06c8.21-4.88,17.8-7.69,28.04-7.69c30.34,0,54.93,24.6,54.93,54.94
				c0,30.34-24.6,54.94-54.93,54.94h-365.34c-28.47,0-51.54-23.08-51.54-51.54c0-28.47,23.08-51.54,51.54-51.54
				c13.46,0,25.72,5.16,34.9,13.62c-1.53-4.87-2.35-10.05-2.35-15.43c0-28.47,23.08-51.55,51.54-51.55
				c13.11,0,25.08,4.9,34.18,12.97c-0.01-0.48-0.02-0.95-0.02-1.44C2890.91,601.64,2920.97,571.58,2958.06,571.58 M2958.06,558.58
				c-37.28,0-68.69,25.58-77.61,60.12c-7.48-2.95-15.51-4.5-23.7-4.5c-32.88,0-60.09,24.71-64.05,56.53
				c-6.41-2.09-13.16-3.18-20.05-3.18c-35.59,0-64.54,28.95-64.54,64.54c0,35.59,28.95,64.54,64.54,64.54h365.34
				c37.46,0,67.93-30.48,67.93-67.94c0-37.46-30.47-67.94-67.93-67.94c-3.25,0-6.49,0.23-9.68,0.69c0.05-1.02,0.07-2.04,0.07-3.06
				c0-35.59-28.95-64.54-64.54-64.54c-12.13,0-23.78,3.36-33.82,9.55C3016.8,576.55,2989.13,558.58,2958.06,558.58L2958.06,558.58z"
				/>
		</g>
		<path class="st7" d="M3191.26,742.12c-5.98,23.86-27.57,41.52-53.28,41.52h-365.34c-28.47,0-51.54-23.08-51.54-51.55
			c0-12.25,4.27-23.5,11.41-32.34c-0.9,3.81-1.38,7.79-1.38,11.88c0,28.46,23.08,51.54,51.55,51.54h365.34
			C3165.57,763.18,3181.21,754.94,3191.26,742.12z"/>
	</g>
	<g>
		<path class="st5" d="M2542.44,930.15v181.21h41.6v52.05h-41.6v68.61h-69.48v-68.61h-130.02v-52.05l119.9-181.21H2542.44z
			 M2395.44,1111.36h80.79v-100.62c0-3.92,0.14-8.64,0.44-14.16l0.44-12.2L2395.44,1111.36z"/>
		<path class="st5" d="M2724.51,1236.59c-36.45,0-64.79-14.45-85.05-43.34c-20.25-28.89-30.38-65.41-30.38-109.55
			c0-43.27,9.87-79.68,29.62-109.22c19.74-29.55,48.49-44.32,86.25-44.32c37.46,0,66.21,14.78,86.25,44.32
			c20.04,29.55,30.06,65.67,30.06,108.35c0,43.71-10.06,80.26-30.16,109.66C2790.98,1221.89,2762.12,1236.59,2724.51,1236.59z
			 M2725.39,980.03c-16.41,0-27.84,7.59-34.3,22.76c-6.46,15.17-9.69,41.78-9.69,79.82c0,38.33,3.38,64.98,10.13,79.93
			c6.75,14.96,17.97,22.43,33.65,22.43c15.54,0,26.79-7.33,33.76-22c6.97-14.66,10.45-40.51,10.45-77.54
			c0-40.65-3.41-68.39-10.24-83.2C2752.32,987.43,2741.07,980.03,2725.39,980.03z"/>
		<path class="st5" d="M3067.76,930.15v181.21h41.6v52.05h-41.6v68.61h-69.48v-68.61h-130.02v-52.05l119.9-181.21H3067.76z
			 M2920.77,1111.36h80.79v-100.62c0-3.92,0.14-8.64,0.44-14.16l0.44-12.2L2920.77,1111.36z"/>
	</g>
	<g>
		<path class="st4" d="M2342.78,1361.8v34.94h-7.66v-72.39c0-8.22,0.01-14.47-0.22-18.62h7.59c0.17,2.31,0.28,7.32,0.29,11.35
			c3.63-7.55,10.47-12.69,21.24-12.69c14.58,0,24.48,11.85,24.48,32.52c0,22.42-11.7,34.95-26.88,34.95
			C2351.48,1371.85,2345.82,1367.52,2342.78,1361.8z M2380.45,1337.26c0-16.04-6.74-25.86-18.5-25.86
			c-14.81,0-19.52,10.51-19.52,26.97c0,15.49,3.08,26.52,18.75,26.52C2373.2,1364.88,2380.45,1354.67,2380.45,1337.26z"/>
		<path class="st4" d="M2447.16,1357.48c0,4.78,0.49,10.52,1,13.22h-7.29c-0.43-2.22-0.91-5.48-0.96-10.75
			c-2.36,6.63-8.89,12-20.44,12c-15.65,0-20.53-10.78-20.53-19.64c0-9.98,6.61-20.42,29.39-20.42c4.85,0,8.22,0,11.21,0v-6.89
			c0-6.5-1.82-14.06-14.69-14.06c-10.75,0-14.3,4.93-15.63,12.61h-7.59c1.05-10.48,7.07-19.16,23.56-19.16
			c13.23,0,21.98,5.7,21.98,19.95V1357.48z M2439.71,1338.09c-2.61,0-7.23,0-11.53,0c-16.91,0-21.23,6.47-21.23,13.9
			c0,7.33,4.61,13.13,13.54,13.13c14.7,0,19.22-9.92,19.22-25.53V1338.09z"/>
		<path class="st4" d="M2515.48,1366.33c0,20.44-8.27,31.49-26.94,31.49c-17.97,0-23.76-9.7-24.85-18.85h7.68
			c1.73,8.25,8.4,12.16,17.34,12.16c15.56,0,19.28-10.41,19.28-25.85v-6.01c-3.39,7.85-9,11.86-20.15,11.86
			c-15.2,0-25.25-12.92-25.25-32.99c0-21.31,11.56-33.77,26.75-33.77c10.8,0,16.67,4.77,18.44,10.35c0.03-3.38,0.29-7.41,0.43-9.01
			h7.52c-0.11,2.98-0.26,10.3-0.26,18.56V1366.33z M2470.67,1338.05c0,16.36,7.29,26,18.66,26c14.04,0,18.85-9.06,18.85-26.48
			c0-17.86-4.55-26.1-18.27-26.1C2477.29,1311.47,2470.67,1322.37,2470.67,1338.05z"/>
		<path class="st4" d="M2538.65,1339.41c-0.07,15.4,6.87,25.79,19.12,25.79c11.69,0,15.34-8.09,16.88-12.03h7.66
			c-1.86,7.18-7.84,18.87-25.02,18.87c-20.09,0-26.55-16.87-26.55-33.97c0-16.47,8.06-33.68,27.14-33.68
			c19.82,0,25.61,16.26,25.61,30.15c0,0.47-0.01,4.43-0.05,4.88H2538.65z M2575.74,1333.14c-0.32-12.66-5.72-22.02-18.1-22.02
			c-14.03,0-17.86,12.52-18.71,22.02H2575.74z"/>
		<path class="st4" d="M2631.09,1325.31c0-12.03-0.1-16.35-0.23-19.58h7.59c0.17,1.43,0.42,8.77,0.31,11.18
			c2.73-6.21,8.32-12.52,19.95-12.52c11.38,0,20.96,6.08,20.96,24.63v41.68h-7.77v-40.74c0-10.54-3.97-18.43-14.48-18.43
			c-13.61,0-18.66,10.74-18.66,25.25v33.92h-7.68V1325.31z"/>
		<path class="st4" d="M2750.84,1337.28c0,18.65-8.33,34.58-28.38,34.58c-18.8,0-27.43-16.02-27.43-34.33
			c0-17.73,9.66-33.15,28.2-33.15C2740.5,1304.38,2750.84,1317.81,2750.84,1337.28z M2703.07,1337.57c0,15.39,6.96,27.46,20,27.46
			c13.75,0,19.63-11.64,19.63-27.71c0-14.75-6.73-26.1-19.92-26.1C2709.72,1311.22,2703.07,1322.34,2703.07,1337.57z"/>
		<path class="st4" d="M2757.3,1305.73h11.17v-19.56h7.67v19.56h14.07v6.72h-14.07v43.43c0,6.1,1.5,8.87,7.26,8.87
			c1.88,0,4.35-0.21,5.75-0.53v6.28c-2.19,0.85-5.44,1.09-7.79,1.09c-8.17,0-12.87-3.25-12.87-13.49v-45.65h-11.17V1305.73z"/>
		<path class="st4" d="M2835.69,1370.7v-58.26h-10.61v-6.72h10.61v-9.05c0-11,3.17-21.59,16.83-21.59c1.79,0,4.24,0.21,5.8,0.82
			v6.96c-1.4-0.39-3.5-0.64-5.84-0.64c-6.54,0-9.12,4.38-9.12,13.75v9.73h12.99v6.72h-12.99v58.26H2835.69z"/>
		<path class="st4" d="M2916.79,1337.28c0,18.65-8.33,34.58-28.38,34.58c-18.8,0-27.43-16.02-27.43-34.33
			c0-17.73,9.66-33.15,28.2-33.15C2906.46,1304.38,2916.79,1317.81,2916.79,1337.28z M2869.03,1337.57c0,15.39,6.96,27.46,20,27.46
			c13.75,0,19.63-11.64,19.63-27.71c0-14.75-6.73-26.1-19.92-26.1C2875.68,1311.22,2869.03,1322.34,2869.03,1337.57z"/>
		<path class="st4" d="M2979.48,1352.52c0,7.32,0.13,15.17,0.23,18.18h-7.39c-0.36-1.72-0.49-6.18-0.51-11.37
			c-2.54,7.18-9.41,12.61-19.79,12.61c-9.04,0-20.11-3.52-20.11-22.47v-43.75h7.64v42c0,9.14,2.82,17.16,14.19,17.16
			c10.97,0,17.87-7.23,17.87-23.35v-35.8h7.86V1352.52z"/>
		<path class="st4" d="M2999.62,1325.31c0-12.03-0.1-16.35-0.23-19.58h7.59c0.17,1.43,0.42,8.77,0.31,11.18
			c2.73-6.21,8.32-12.52,19.95-12.52c11.38,0,20.96,6.08,20.96,24.63v41.68h-7.77v-40.74c0-10.54-3.97-18.43-14.48-18.43
			c-13.61,0-18.66,10.74-18.66,25.25v33.92h-7.68V1325.31z"/>
		<path class="st4" d="M3116.93,1276.24v77.63c0,5.74,0.01,12.25,0.23,16.83h-7.56c-0.17-1.68-0.33-6.21-0.33-10.45
			c-3.5,8.24-9.3,11.71-20.18,11.71c-16.93,0-25.56-14.36-25.56-33.49c0-18.7,9.72-34.08,27.4-34.08c11.19,0,16.45,4.74,18.33,8.79
			v-36.92H3116.93z M3071.59,1338.07c0,17.42,8.2,26.9,18.92,26.9c15.56,0,18.98-11.95,18.98-28.41c0-19.18-5.81-25.18-18.17-25.18
			C3079.3,1311.38,3071.59,1321.24,3071.59,1338.07z"/>
	</g>
	<path class="st4" d="M1639.19,1441.36c-29.52,0-53.45,23.93-53.45,53.45c0,29.53,23.94,53.45,53.45,53.45
		c29.52,0,53.44-23.93,53.44-53.45C1692.63,1465.29,1668.7,1441.36,1639.19,1441.36z M1639.19,1533.77
		c-21.52,0-38.96-17.44-38.96-38.96c0-21.51,17.44-38.96,38.96-38.96c21.52,0,38.96,17.44,38.96,38.96
		C1678.15,1516.32,1660.71,1533.77,1639.19,1533.77z"/>
	<path class="st4" d="M2230.38,741.7c-18.84,0-34.13,15.28-34.13,34.12c0,18.85,15.28,34.13,34.13,34.13
		c18.84,0,34.12-15.28,34.12-34.13C2264.5,756.98,2249.22,741.7,2230.38,741.7z M2230.38,800.7c-13.74,0-24.88-11.14-24.88-24.88
		c0-13.73,11.14-24.87,24.88-24.87c13.74,0,24.88,11.14,24.88,24.87C2255.26,789.56,2244.12,800.7,2230.38,800.7z"/>
	<path class="st4" d="M3970.71,997.2c-18.84,0-34.13,15.28-34.13,34.12c0,18.85,15.28,34.13,34.13,34.13
		c18.84,0,34.12-15.28,34.12-34.13C4004.83,1012.48,3989.56,997.2,3970.71,997.2z M3970.71,1056.2c-13.74,0-24.88-11.14-24.88-24.88
		c0-13.73,11.14-24.87,24.88-24.87s24.88,11.14,24.88,24.87C3995.59,1045.06,3984.45,1056.2,3970.71,1056.2z"/>
	<path class="st4" d="M3518.25,957.64c-29.52,0-53.45,23.93-53.45,53.45c0,29.53,23.94,53.45,53.45,53.45
		c29.52,0,53.45-23.93,53.45-53.45C3571.69,981.57,3547.77,957.64,3518.25,957.64z M3518.25,1050.05
		c-21.52,0-38.96-17.44-38.96-38.96c0-21.51,17.44-38.96,38.96-38.96c21.52,0,38.96,17.44,38.96,38.96
		C3557.21,1032.61,3539.77,1050.05,3518.25,1050.05z"/>
	<g>
		<rect x="3817.65" y="617.34" class="st4" width="10.73" height="21.64"/>
		<rect x="3817.65" y="663.39" class="st4" width="10.73" height="21.64"/>
		<rect x="3789.16" y="645.83" class="st4" width="21.64" height="10.72"/>
		<rect x="3835.22" y="645.83" class="st4" width="21.64" height="10.72"/>
	</g>
	<g>
		<rect x="1479.57" y="1031.32" class="st4" width="15.77" height="31.82"/>
		<rect x="1479.57" y="1099.03" class="st4" width="15.77" height="31.82"/>
		<rect x="1437.69" y="1073.2" class="st4" width="31.82" height="15.76"/>
		<rect x="1505.4" y="1073.2" class="st4" width="31.82" height="15.76"/>
	</g>
</g>
</svg>
